<mxfile host="app.diagrams.net" agent="Mozilla/5.0 (Windows NT 10.0; Win64; x64) AppleWebKit/537.36 (KHTML, like Gecko) Chrome/131.0.0.0 Safari/537.36" version="24.8.6">
  <diagram id="C5RBs43oDa-KdzZeNtuy" name="Page-1">
    <mxGraphModel dx="553" dy="907" grid="1" gridSize="10" guides="1" tooltips="1" connect="1" arrows="1" fold="1" page="1" pageScale="1" pageWidth="827" pageHeight="1169" math="0" shadow="0">
      <root>
        <mxCell id="WIyWlLk6GJQsqaUBKTNV-0" />
        <mxCell id="WIyWlLk6GJQsqaUBKTNV-1" parent="WIyWlLk6GJQsqaUBKTNV-0" />
        <mxCell id="WIyWlLk6GJQsqaUBKTNV-2" value="" style="rounded=0;html=1;jettySize=auto;orthogonalLoop=1;fontSize=11;endArrow=block;endFill=0;endSize=8;strokeWidth=1;shadow=0;labelBackgroundColor=none;edgeStyle=orthogonalEdgeStyle;" parent="WIyWlLk6GJQsqaUBKTNV-1" source="WIyWlLk6GJQsqaUBKTNV-3" edge="1">
          <mxGeometry relative="1" as="geometry">
            <mxPoint x="380" y="170" as="targetPoint" />
          </mxGeometry>
        </mxCell>
        <mxCell id="WIyWlLk6GJQsqaUBKTNV-3" value="Inicio" style="rounded=1;whiteSpace=wrap;html=1;fontSize=12;glass=0;strokeWidth=1;shadow=0;" parent="WIyWlLk6GJQsqaUBKTNV-1" vertex="1">
          <mxGeometry x="320" y="80" width="120" height="40" as="geometry" />
        </mxCell>
        <mxCell id="oNxjT-qgeCtJwkP_95I6-0" value="Jugadores" style="shape=parallelogram;perimeter=parallelogramPerimeter;whiteSpace=wrap;html=1;fixedSize=1;" vertex="1" parent="WIyWlLk6GJQsqaUBKTNV-1">
          <mxGeometry x="320" y="170" width="120" height="60" as="geometry" />
        </mxCell>
        <mxCell id="oNxjT-qgeCtJwkP_95I6-2" value="crear lista con generos (F/M)" style="rounded=0;whiteSpace=wrap;html=1;" vertex="1" parent="WIyWlLk6GJQsqaUBKTNV-1">
          <mxGeometry x="320" y="290" width="120" height="60" as="geometry" />
        </mxCell>
        <mxCell id="oNxjT-qgeCtJwkP_95I6-3" value="" style="endArrow=classic;html=1;rounded=0;exitX=0.5;exitY=1;exitDx=0;exitDy=0;" edge="1" parent="WIyWlLk6GJQsqaUBKTNV-1" source="oNxjT-qgeCtJwkP_95I6-0" target="oNxjT-qgeCtJwkP_95I6-2">
          <mxGeometry width="50" height="50" relative="1" as="geometry">
            <mxPoint x="370" y="370" as="sourcePoint" />
            <mxPoint x="420" y="320" as="targetPoint" />
          </mxGeometry>
        </mxCell>
        <mxCell id="oNxjT-qgeCtJwkP_95I6-4" value="¿Se ha recorrido toda la lista de generos?" style="rhombus;whiteSpace=wrap;html=1;" vertex="1" parent="WIyWlLk6GJQsqaUBKTNV-1">
          <mxGeometry x="275" y="410" width="210" height="160" as="geometry" />
        </mxCell>
        <mxCell id="oNxjT-qgeCtJwkP_95I6-5" value="" style="endArrow=classic;html=1;rounded=0;exitX=0.5;exitY=1;exitDx=0;exitDy=0;" edge="1" parent="WIyWlLk6GJQsqaUBKTNV-1">
          <mxGeometry width="50" height="50" relative="1" as="geometry">
            <mxPoint x="379.66" y="350" as="sourcePoint" />
            <mxPoint x="379.66" y="410" as="targetPoint" />
          </mxGeometry>
        </mxCell>
        <mxCell id="oNxjT-qgeCtJwkP_95I6-7" value="" style="endArrow=classic;html=1;rounded=0;exitX=0.997;exitY=0.535;exitDx=0;exitDy=0;exitPerimeter=0;" edge="1" parent="WIyWlLk6GJQsqaUBKTNV-1">
          <mxGeometry width="50" height="50" relative="1" as="geometry">
            <mxPoint x="485.0000000000001" y="489.6599999999999" as="sourcePoint" />
            <mxPoint x="580.63" y="490.06" as="targetPoint" />
            <Array as="points">
              <mxPoint x="540.63" y="490.06" />
            </Array>
          </mxGeometry>
        </mxCell>
        <mxCell id="oNxjT-qgeCtJwkP_95I6-8" value="Crear lista de equipos" style="rounded=0;whiteSpace=wrap;html=1;" vertex="1" parent="WIyWlLk6GJQsqaUBKTNV-1">
          <mxGeometry x="580" y="460" width="120" height="60" as="geometry" />
        </mxCell>
        <mxCell id="oNxjT-qgeCtJwkP_95I6-9" value="No" style="text;html=1;align=center;verticalAlign=middle;resizable=0;points=[];autosize=1;strokeColor=none;fillColor=none;" vertex="1" parent="WIyWlLk6GJQsqaUBKTNV-1">
          <mxGeometry x="485" y="450" width="40" height="30" as="geometry" />
        </mxCell>
        <mxCell id="oNxjT-qgeCtJwkP_95I6-10" value="Asignar por posición los jugadores a la lista de equipos" style="rounded=0;whiteSpace=wrap;html=1;" vertex="1" parent="WIyWlLk6GJQsqaUBKTNV-1">
          <mxGeometry x="580" y="590" width="120" height="60" as="geometry" />
        </mxCell>
        <mxCell id="oNxjT-qgeCtJwkP_95I6-11" value="" style="endArrow=classic;html=1;rounded=0;exitX=0.5;exitY=1;exitDx=0;exitDy=0;entryX=0.5;entryY=0;entryDx=0;entryDy=0;" edge="1" parent="WIyWlLk6GJQsqaUBKTNV-1" source="oNxjT-qgeCtJwkP_95I6-8" target="oNxjT-qgeCtJwkP_95I6-10">
          <mxGeometry width="50" height="50" relative="1" as="geometry">
            <mxPoint x="560.0000000000001" y="559.9999999999999" as="sourcePoint" />
            <mxPoint x="655.63" y="560.4" as="targetPoint" />
            <Array as="points">
              <mxPoint x="640" y="560" />
            </Array>
          </mxGeometry>
        </mxCell>
        <mxCell id="oNxjT-qgeCtJwkP_95I6-13" value="Los jugadores que se queden sin equipo, se dejan en reserva" style="rounded=0;whiteSpace=wrap;html=1;" vertex="1" parent="WIyWlLk6GJQsqaUBKTNV-1">
          <mxGeometry x="580" y="740" width="120" height="60" as="geometry" />
        </mxCell>
        <mxCell id="oNxjT-qgeCtJwkP_95I6-14" value="" style="endArrow=classic;html=1;rounded=0;exitX=0.5;exitY=1;exitDx=0;exitDy=0;entryX=0.5;entryY=0;entryDx=0;entryDy=0;" edge="1" parent="WIyWlLk6GJQsqaUBKTNV-1" target="oNxjT-qgeCtJwkP_95I6-13">
          <mxGeometry width="50" height="50" relative="1" as="geometry">
            <mxPoint x="639.66" y="650" as="sourcePoint" />
            <mxPoint x="639.66" y="720" as="targetPoint" />
            <Array as="points">
              <mxPoint x="639.66" y="690" />
            </Array>
          </mxGeometry>
        </mxCell>
        <mxCell id="oNxjT-qgeCtJwkP_95I6-15" value="" style="endArrow=classic;html=1;rounded=0;entryX=1;entryY=0.5;entryDx=0;entryDy=0;" edge="1" parent="WIyWlLk6GJQsqaUBKTNV-1" target="oNxjT-qgeCtJwkP_95I6-16">
          <mxGeometry width="50" height="50" relative="1" as="geometry">
            <mxPoint x="578" y="769.5" as="sourcePoint" />
            <mxPoint x="440" y="770.5" as="targetPoint" />
            <Array as="points">
              <mxPoint x="532.64" y="769.61" />
            </Array>
          </mxGeometry>
        </mxCell>
        <mxCell id="oNxjT-qgeCtJwkP_95I6-16" value="Cambiar de genero" style="rounded=0;whiteSpace=wrap;html=1;" vertex="1" parent="WIyWlLk6GJQsqaUBKTNV-1">
          <mxGeometry x="318" y="740" width="120" height="60" as="geometry" />
        </mxCell>
        <mxCell id="oNxjT-qgeCtJwkP_95I6-17" value="" style="endArrow=classic;html=1;rounded=0;exitX=0.5;exitY=0;exitDx=0;exitDy=0;" edge="1" parent="WIyWlLk6GJQsqaUBKTNV-1" source="oNxjT-qgeCtJwkP_95I6-16">
          <mxGeometry width="50" height="50" relative="1" as="geometry">
            <mxPoint x="382" y="740" as="sourcePoint" />
            <mxPoint x="378" y="570" as="targetPoint" />
            <Array as="points" />
          </mxGeometry>
        </mxCell>
        <mxCell id="oNxjT-qgeCtJwkP_95I6-18" value="" style="endArrow=classic;html=1;rounded=0;exitX=0;exitY=0.5;exitDx=0;exitDy=0;" edge="1" parent="WIyWlLk6GJQsqaUBKTNV-1" source="oNxjT-qgeCtJwkP_95I6-4">
          <mxGeometry width="50" height="50" relative="1" as="geometry">
            <mxPoint x="270" y="490" as="sourcePoint" />
            <mxPoint x="400" y="980" as="targetPoint" />
            <Array as="points">
              <mxPoint x="150" y="490" />
              <mxPoint x="150" y="880" />
              <mxPoint x="400" y="880" />
            </Array>
          </mxGeometry>
        </mxCell>
        <mxCell id="oNxjT-qgeCtJwkP_95I6-21" value="Fin" style="ellipse;whiteSpace=wrap;html=1;" vertex="1" parent="WIyWlLk6GJQsqaUBKTNV-1">
          <mxGeometry x="340" y="980" width="120" height="80" as="geometry" />
        </mxCell>
        <mxCell id="oNxjT-qgeCtJwkP_95I6-22" value="Si" style="text;html=1;align=center;verticalAlign=middle;resizable=0;points=[];autosize=1;strokeColor=none;fillColor=none;" vertex="1" parent="WIyWlLk6GJQsqaUBKTNV-1">
          <mxGeometry x="195" y="450" width="30" height="30" as="geometry" />
        </mxCell>
      </root>
    </mxGraphModel>
  </diagram>
</mxfile>
